<svg width="24" height="24" viewBox="0 0 24 24" fill="none" xmlns="http://www.w3.org/2000/svg">
<g id="sign_moon">
<path id="Vector" d="M3.35354 12.9044C3.48336 12.794 3.64071 12.7233 3.80766 12.7004C3.97461 12.6775 4.14445 12.7033 4.29785 12.7749C5.24883 13.2227 6.28281 13.4532 7.32862 13.4504C9.26323 13.448 11.1185 12.6587 12.4898 11.2545C13.8611 9.85038 14.6374 7.94528 14.6492 5.95463C14.6451 5.33075 14.5697 4.70954 14.4244 4.10382C14.3936 3.94237 14.4051 3.77538 14.4579 3.62006C14.5107 3.46474 14.6027 3.32671 14.7246 3.22017C14.8464 3.11364 14.9937 3.04246 15.1512 3.01398C15.3087 2.98549 15.4707 3.00072 15.6205 3.0581C17.0304 3.71043 18.256 4.72084 19.1821 5.99441C20.1083 7.26798 20.7046 8.7629 20.9151 10.3387C21.1255 11.9146 20.9433 13.5196 20.3853 15.0031C19.8274 16.4865 18.9122 17.7997 17.7256 18.8192C16.539 19.8387 15.1201 20.5311 13.602 20.8313C12.084 21.1316 10.5166 21.0298 9.04731 20.5356C7.57797 20.0414 6.25484 19.1709 5.20223 18.006C4.14961 16.8411 3.40205 15.42 3.02978 13.8761C2.98444 13.6994 2.99099 13.5128 3.04861 13.3398C3.10623 13.1669 3.21234 13.0154 3.35354 12.9044ZM11.8973 19.0954C13.4066 19.0845 14.8757 18.5937 16.1035 17.6904C17.3313 16.7871 18.2577 15.5153 18.7559 14.0493C19.2541 12.5832 19.2998 10.9946 18.8866 9.5008C18.4735 8.00702 17.6217 6.68117 16.4479 5.70477V5.95463C16.4455 8.44258 15.484 10.8279 13.7743 12.5872C12.0646 14.3464 9.74648 15.3358 7.32862 15.3383C6.69379 15.3407 6.06058 15.2724 5.44001 15.1347C6.06064 16.3428 6.99005 17.3537 8.128 18.0582C9.26594 18.7627 10.5692 19.1341 11.8973 19.1324V19.0954Z" fill="#877CFE" fill-opacity="0.2"/>
</g>
</svg>
