<svg width="24" height="24" viewBox="0 0 24 24" fill="none" xmlns="http://www.w3.org/2000/svg">
<g id="sign_on">
<g id="ON">
<path d="M12.0781 12.0859C12.0781 13.125 11.8822 14.0296 11.4902 14.7998C11.1029 15.5654 10.5651 16.1533 9.87695 16.5635C9.1888 16.9691 8.40951 17.1719 7.53906 17.1719C6.66862 17.1719 5.88932 16.9691 5.20117 16.5635C4.51758 16.1533 3.97982 15.5632 3.58789 14.793C3.19596 14.0228 3 13.1204 3 12.0859C3 11.0378 3.19596 10.1309 3.58789 9.36523C3.97982 8.59961 4.51758 8.014 5.20117 7.6084C5.88932 7.2028 6.66862 7 7.53906 7C8.40951 7 9.1888 7.2028 9.87695 7.6084C10.5651 8.014 11.1029 8.59961 11.4902 9.36523C11.8822 10.1309 12.0781 11.0378 12.0781 12.0859ZM10.2939 12.0859C10.2939 11.3477 10.1777 10.7165 9.94531 10.1924C9.71745 9.66829 9.39616 9.27181 8.98145 9.00293C8.57129 8.73405 8.09049 8.59961 7.53906 8.59961C6.99674 8.59961 6.51595 8.73405 6.09668 9.00293C5.68197 9.27181 5.3584 9.66829 5.12598 10.1924C4.89811 10.7165 4.78418 11.3477 4.78418 12.0859C4.78418 12.8242 4.89811 13.4554 5.12598 13.9795C5.3584 14.5036 5.68197 14.9001 6.09668 15.1689C6.51595 15.4378 6.99674 15.5723 7.53906 15.5723C8.09049 15.5723 8.57129 15.4378 8.98145 15.1689C9.39616 14.9001 9.71745 14.5036 9.94531 13.9795C10.1777 13.4554 10.2939 12.8242 10.2939 12.0859Z" fill="#6F62FE"/>
<path d="M20.7988 15.9989C20.7988 16.5712 20.3349 17.0352 19.7625 17.0352C19.4226 17.0352 19.1042 16.8684 18.9107 16.5889L14.5371 10.2744H14.4482V16.1465C14.4482 16.6373 14.0504 17.0352 13.5596 17.0352C13.0688 17.0352 12.6709 16.6373 12.6709 16.1465V8.18565C12.6709 7.60634 13.1405 7.13672 13.7198 7.13672C14.0646 7.13672 14.3874 7.30618 14.5832 7.58999L18.9395 13.9043H19.0283V8.02197C19.0283 7.53306 19.4247 7.13672 19.9136 7.13672C20.4025 7.13672 20.7988 7.53306 20.7988 8.02197V15.9989Z" fill="#6F62FE"/>
</g>
</g>
</svg>
