<svg width="24" height="24" viewBox="0 0 24 24" fill="none" xmlns="http://www.w3.org/2000/svg">
<g id="sign_off">
<g id="OFF">
<path d="M10.0781 12.0859C10.0781 13.125 9.88216 14.0296 9.49023 14.7998C9.10286 15.5654 8.5651 16.1533 7.87695 16.5635C7.1888 16.9691 6.40951 17.1719 5.53906 17.1719C4.66862 17.1719 3.88932 16.9691 3.20117 16.5635C2.51758 16.1533 1.97982 15.5632 1.58789 14.793C1.19596 14.0228 1 13.1204 1 12.0859C1 11.0378 1.19596 10.1309 1.58789 9.36523C1.97982 8.59961 2.51758 8.014 3.20117 7.6084C3.88932 7.2028 4.66862 7 5.53906 7C6.40951 7 7.1888 7.2028 7.87695 7.6084C8.5651 8.014 9.10286 8.59961 9.49023 9.36523C9.88216 10.1309 10.0781 11.0378 10.0781 12.0859ZM8.29395 12.0859C8.29395 11.3477 8.17773 10.7165 7.94531 10.1924C7.71745 9.66829 7.39616 9.27181 6.98145 9.00293C6.57129 8.73405 6.09049 8.59961 5.53906 8.59961C4.99674 8.59961 4.51595 8.73405 4.09668 9.00293C3.68197 9.27181 3.3584 9.66829 3.12598 10.1924C2.89811 10.7165 2.78418 11.3477 2.78418 12.0859C2.78418 12.8242 2.89811 13.4554 3.12598 13.9795C3.3584 14.5036 3.68197 14.9001 4.09668 15.1689C4.51595 15.4378 4.99674 15.5723 5.53906 15.5723C6.09049 15.5723 6.57129 15.4378 6.98145 15.1689C7.39616 14.9001 7.71745 14.5036 7.94531 13.9795C8.17773 13.4554 8.29395 12.8242 8.29395 12.0859Z" fill="#877CFE" fill-opacity="0.2"/>
<path d="M10.6709 8.13672C10.6709 7.58443 11.1186 7.13672 11.6709 7.13672H16.2593C16.6727 7.13672 17.0078 7.47185 17.0078 7.88525C17.0078 8.29866 16.6727 8.63379 16.2593 8.63379H12.4482V11.3408H15.8286C16.2382 11.3408 16.5703 11.6729 16.5703 12.0825C16.5703 12.4921 16.2382 12.8242 15.8286 12.8242H12.4482V16.1465C12.4482 16.6373 12.0504 17.0352 11.5596 17.0352C11.0688 17.0352 10.6709 16.6373 10.6709 16.1465V8.13672Z" fill="#877CFE" fill-opacity="0.2"/>
<path d="M17.5186 8.13672C17.5186 7.58443 17.9663 7.13672 18.5186 7.13672H23.1069C23.5203 7.13672 23.8555 7.47185 23.8555 7.88525C23.8555 8.29866 23.5203 8.63379 23.1069 8.63379H19.2959V11.3408H22.6763C23.0859 11.3408 23.418 11.6729 23.418 12.0825C23.418 12.4921 23.0859 12.8242 22.6763 12.8242H19.2959V16.1465C19.2959 16.6373 18.898 17.0352 18.4072 17.0352C17.9164 17.0352 17.5186 16.6373 17.5186 16.1465V8.13672Z" fill="#877CFE" fill-opacity="0.2"/>
</g>
</g>
</svg>
