<svg width="24" height="24" viewBox="0 0 24 24" fill="none" xmlns="http://www.w3.org/2000/svg">
<path d="M12 4.5V3M12 21V19.5M21 12H19.5M4.5 12H3M17.303 6.697L18.364 5.636M5.636 18.364L6.696 17.304M18.364 18.364L17.304 17.304M6.696 6.696L5.636 5.636M16 12C16 13.0609 15.5786 14.0783 14.8284 14.8284C14.0783 15.5786 13.0609 16 12 16C10.9391 16 9.92172 15.5786 9.17157 14.8284C8.42143 14.0783 8 13.0609 8 12C8 10.9391 8.42143 9.92172 9.17157 9.17157C9.92172 8.42143 10.9391 8 12 8C13.0609 8 14.0783 8.42143 14.8284 9.17157C15.5786 9.92172 16 10.9391 16 12Z" stroke="#6F62FE" stroke-width="2" stroke-linecap="round"/>
</svg>
