<svg width="54" height="40" viewBox="0 0 54 40" fill="none" xmlns="http://www.w3.org/2000/svg">
<path d="M1 29.41V16.09H7.66C9.268 16.09 10.522 16.486 11.422 17.278C12.322 18.07 12.772 19.216 12.772 20.716C12.772 22.228 12.322 23.38 11.422 24.172C10.522 24.964 9.268 25.36 7.66 25.36H3.61V29.41H1ZM7.66 18.16H3.61V23.29H7.66C8.44 23.29 9.034 23.08 9.442 22.66C9.862 22.228 10.072 21.58 10.072 20.716C10.072 19.864 9.862 19.228 9.442 18.808C9.034 18.376 8.44 18.16 7.66 18.16Z" fill="white"/>
<path d="M19.1645 25.45C17.5565 25.45 16.3025 25.054 15.4025 24.262C14.5025 23.458 14.0525 22.282 14.0525 20.734C14.0525 19.174 14.5025 17.998 15.4025 17.206C16.3025 16.402 17.5565 16 19.1645 16H23.6645C24.7205 16 25.5245 16.252 26.0765 16.756C26.6405 17.248 26.9225 17.956 26.9225 18.88C26.9225 20.764 25.8365 21.706 23.6645 21.706H16.8605C17.1125 22.822 17.8805 23.38 19.1645 23.38H26.4545V25.45H19.1645ZM19.1645 18.07C17.9285 18.07 17.1665 18.592 16.8785 19.636H23.5385C23.7785 19.636 23.9645 19.564 24.0965 19.42C24.2405 19.276 24.3125 19.078 24.3125 18.826C24.3125 18.322 24.0545 18.07 23.5385 18.07H19.1645Z" fill="white"/>
<path d="M33.3153 25.45C31.7073 25.45 30.4533 25.054 29.5533 24.262C28.6533 23.458 28.2033 22.282 28.2033 20.734C28.2033 19.174 28.6533 17.998 29.5533 17.206C30.4533 16.402 31.7073 16 33.3153 16H37.8153C38.8713 16 39.6753 16.252 40.2273 16.756C40.7913 17.248 41.0733 17.956 41.0733 18.88C41.0733 20.764 39.9873 21.706 37.8153 21.706H31.0113C31.2633 22.822 32.0313 23.38 33.3153 23.38H40.6053V25.45H33.3153ZM33.3153 18.07C32.0793 18.07 31.3173 18.592 31.0293 19.636H37.6893C37.9293 19.636 38.1153 19.564 38.2473 19.42C38.3913 19.276 38.4633 19.078 38.4633 18.826C38.4633 18.322 38.2053 18.07 37.6893 18.07H33.3153Z" fill="white"/>
<path d="M42.7142 25.36V16.09H49.8062C50.8502 16.09 51.6182 16.354 52.1102 16.882C52.6022 17.398 52.8482 18.082 52.8482 18.934V20.86H50.2022V19.258C50.2022 18.538 49.8422 18.178 49.1222 18.178H45.3602V25.36H42.7142Z" fill="white"/>
</svg>
