<svg width="40" height="40" viewBox="0 0 40 40" fill="none" xmlns="http://www.w3.org/2000/svg">
<rect width="40" height="40" rx="20" fill="#4E6ED4" fill-opacity="0.2"/>
<path d="M12.8525 16.2529C12.8462 16.8369 13.3794 17.5732 14.3696 17.9731C15.3408 17.5796 15.8613 16.8623 15.8613 16.2529V16.2021H14.5918V15.0596H18.8828V16.2021H17.2959V16.291C17.2896 17.0781 17.9814 17.9478 19.3652 18.2715L18.7559 19.2998C17.6323 19.0142 16.896 18.373 16.5215 17.5986C16.1406 18.2905 15.436 18.8872 14.3633 19.1475C13.2905 18.8682 12.5859 18.2651 12.1987 17.5796C11.8306 18.3477 11.1006 19.0078 9.9834 19.2998L9.38672 18.2715C10.7324 17.9287 11.4497 17.021 11.4561 16.291V16.2021H9.83105V15.0596H14.1348V16.2021H12.8525V16.2529ZM9.14551 21.3438V20.2139H13.665V19.1982H15.0615V20.2139H19.6064V21.3438H9.14551ZM10.2754 23.4893V22.3594H18.3242V26.1299H16.9023V23.4893H10.2754ZM24.71 17.916C24.71 19.7949 25.8145 21.7754 27.668 22.5498L26.8936 23.667C25.5352 23.0767 24.5449 21.877 24.0181 20.417C23.4912 21.9912 22.4819 23.3115 21.1426 23.9463L20.3301 22.8418C22.1392 22.0039 23.269 19.8647 23.2754 17.916V16.9512H20.749V15.7832H27.2236V16.9512H24.71V17.916ZM28.5059 26.1299V14.6533H29.9277V26.1299H28.5059Z" fill="#3A5DCF"/>
</svg>
