<svg width="40" height="40" viewBox="0 0 40 40" fill="none" xmlns="http://www.w3.org/2000/svg">
<rect width="40" height="40" rx="20" fill="#FF6D4D" fill-opacity="0.2"/>
<path d="M7.86963 17.4082C7.85693 19.5156 8.96777 21.623 10.8276 22.4229L9.98975 23.5527C8.66943 22.9434 7.70459 21.731 7.17139 20.2329C6.64453 21.8452 5.6543 23.1655 4.26416 23.8193L3.40088 22.6387C5.31152 21.8135 6.42871 19.6235 6.43506 17.4082V15.5801H7.86963V17.4082ZM11.6528 26.1426V14.6533H13.0747V26.1426H11.6528ZM20.6919 16.2275C20.6919 17.9985 22.4248 19.7822 24.8306 20.2012L24.1958 21.3818C22.2725 20.9819 20.6982 19.814 19.9492 18.2715C19.1938 19.8013 17.6196 20.9756 15.7026 21.3818L15.0806 20.2012C17.4482 19.7695 19.1875 17.9922 19.1938 16.2275V15.377H20.6919V16.2275ZM14.7632 24.6699V23.502H25.2495V24.6699H14.7632ZM30.8481 15.3643V16.5068H27.8394V17.5859H30.4165V18.6777H27.8394V19.8584C29.2104 19.8457 30.1626 19.7886 31.2798 19.5918L31.4321 20.6963C30.1055 20.9375 29.0137 20.9883 27.2427 20.9883H26.481V15.3643H30.8481ZM28.0679 25.9902V22.0039H35.812V25.9902H28.0679ZM29.4771 24.8477H34.4155V23.1211H29.4771V24.8477ZM30.9116 18.6016V17.459H32.2065V14.8438H33.5522V21.4326H32.2065V18.6016H30.9116ZM34.4663 21.5215V14.6533H35.812V21.5215H34.4663Z" fill="#FF5833"/>
</svg>
